packet|codec_type=video|stream_index=0|pts=-144000|pts_time=-0.120000|dts=-144000|dts_time=-0.120000|duration=48000|duration_time=0.040000|size=7454|pos=44|flags=KD_|data_hash=CRC32:4c4c3bab
packet|codec_type=video|stream_index=0|pts=-96000|pts_time=-0.080000|dts=-96000|dts_time=-0.080000|duration=48000|duration_time=0.040000|size=2622|pos=7498|flags=_D_|data_hash=CRC32:a49f2745
packet|codec_type=video|stream_index=0|pts=-48000|pts_time=-0.040000|dts=-48000|dts_time=-0.040000|duration=48000|duration_time=0.040000|size=4672|pos=10120|flags=_D_|data_hash=CRC32:37967f67
packet|codec_type=video|stream_index=0|pts=0|pts_time=0.000000|dts=0|dts_time=0.000000|duration=144000|duration_time=0.120000|size=4624|pos=14792|flags=___|data_hash=CRC32:f2b7eb13
packet|codec_type=video|stream_index=0|pts=144000|pts_time=0.120000|dts=144000|dts_time=0.120000|duration=144000|duration_time=0.120000|size=4192|pos=19416|flags=___|data_hash=CRC32:6538ec17
packet|codec_type=video|stream_index=0|pts=288000|pts_time=0.240000|dts=288000|dts_time=0.240000|duration=48000|duration_time=0.040000|size=2521|pos=23608|flags=___|data_hash=CRC32:eb27f045
packet|codec_type=video|stream_index=0|pts=336000|pts_time=0.280000|dts=336000|dts_time=0.280000|duration=48000|duration_time=0.040000|size=1343|pos=26129|flags=___|data_hash=CRC32:a719dc68
packet|codec_type=video|stream_index=0|pts=384000|pts_time=0.320000|dts=384000|dts_time=0.320000|duration=144000|duration_time=0.120000|size=952|pos=27472|flags=___|data_hash=CRC32:afeae5db
packet|codec_type=video|stream_index=0|pts=528000|pts_time=0.440000|dts=528000|dts_time=0.440000|duration=144000|duration_time=0.120000|size=760|pos=28424|flags=___|data_hash=CRC32:1eacc92c
packet|codec_type=video|stream_index=0|pts=672000|pts_time=0.560000|dts=672000|dts_time=0.560000|duration=48000|duration_time=0.040000|size=2591|pos=29184|flags=___|data_hash=CRC32:17372325
packet|codec_type=video|stream_index=0|pts=720000|pts_time=0.600000|dts=720000|dts_time=0.600000|duration=48000|duration_time=0.040000|size=1188|pos=31775|flags=___|data_hash=CRC32:e9ce977b
packet|codec_type=video|stream_index=0|pts=768000|pts_time=0.640000|dts=768000|dts_time=0.640000|duration=144000|duration_time=0.120000|size=794|pos=32963|flags=___|data_hash=CRC32:8d140f74
packet|codec_type=video|stream_index=0|pts=912000|pts_time=0.760000|dts=912000|dts_time=0.760000|duration=144000|duration_time=0.120000|size=746|pos=33757|flags=___|data_hash=CRC32:3b811942
packet|codec_type=video|stream_index=0|pts=1056000|pts_time=0.880000|dts=1056000|dts_time=0.880000|duration=48000|duration_time=0.040000|size=2603|pos=34503|flags=___|data_hash=CRC32:a486f249
packet|codec_type=video|stream_index=0|pts=1104000|pts_time=0.920000|dts=1104000|dts_time=0.920000|duration=48000|duration_time=0.040000|size=1005|pos=37106|flags=___|data_hash=CRC32:27839d4c
packet|codec_type=video|stream_index=0|pts=1152000|pts_time=0.960000|dts=1152000|dts_time=0.960000|duration=144000|duration_time=0.120000|size=459|pos=38111|flags=___|data_hash=CRC32:eb775bfc
packet|codec_type=video|stream_index=0|pts=1296000|pts_time=1.080000|dts=1296000|dts_time=1.080000|duration=144000|duration_time=0.120000|size=502|pos=38570|flags=___|data_hash=CRC32:ea021457
packet|codec_type=video|stream_index=0|pts=1440000|pts_time=1.200000|dts=1440000|dts_time=1.200000|duration=48000|duration_time=0.040000|size=2734|pos=39072|flags=___|data_hash=CRC32:6999b39c
packet|codec_type=video|stream_index=0|pts=1488000|pts_time=1.240000|dts=1488000|dts_time=1.240000|duration=48000|duration_time=0.040000|size=1246|pos=41806|flags=___|data_hash=CRC32:0f9f3622
packet|codec_type=video|stream_index=0|pts=1536000|pts_time=1.280000|dts=1536000|dts_time=1.280000|duration=144000|duration_time=0.120000|size=572|pos=43052|flags=___|data_hash=CRC32:7d6d8758
packet|codec_type=video|stream_index=0|pts=1680000|pts_time=1.400000|dts=1680000|dts_time=1.400000|duration=144000|duration_time=0.120000|size=749|pos=43624|flags=___|data_hash=CRC32:69746ad8
packet|codec_type=video|stream_index=0|pts=1824000|pts_time=1.520000|dts=1824000|dts_time=1.520000|duration=48000|duration_time=0.040000|size=1483|pos=44373|flags=___|data_hash=CRC32:3e9468fc
packet|codec_type=video|stream_index=0|pts=1872000|pts_time=1.560000|dts=1872000|dts_time=1.560000|duration=144000|duration_time=0.120000|size=638|pos=45856|flags=___|data_hash=CRC32:dc0f1d30
packet|codec_type=video|stream_index=0|pts=2016000|pts_time=1.680000|dts=2016000|dts_time=1.680000|duration=48000|duration_time=0.040000|size=1070|pos=46494|flags=___|data_hash=CRC32:49a62247
stream|index=0|codec_name=hevc|profile=2|codec_type=video|codec_tag_string=hev1|codec_tag=0x31766568|width=416|height=240|coded_width=416|coded_height=240|closed_captions=0|film_grain=0|has_b_frames=3|sample_aspect_ratio=N/A|display_aspect_ratio=N/A|pix_fmt=yuv420p10le|level=60|color_range=tv|color_space=unknown|color_transfer=unknown|color_primaries=unknown|chroma_location=left|field_order=unknown|refs=1|id=0x1|r_frame_rate=25/1|avg_frame_rate=300/23|time_base=1/1200000|start_pts=0|start_time=0.000000|duration_ts=2064000|duration=1.720000|bit_rate=206608|max_bit_rate=N/A|bits_per_raw_sample=N/A|nb_frames=24|nb_read_frames=N/A|nb_read_packets=24|extradata_size=121|extradata_hash=CRC32:bd471302|disposition:default=1|disposition:dub=0|disposition:original=0|disposition:comment=0|disposition:lyrics=0|disposition:karaoke=0|disposition:forced=0|disposition:hearing_impaired=0|disposition:visual_impaired=0|disposition:clean_effects=0|disposition:attached_pic=0|disposition:timed_thumbnails=0|disposition:captions=0|disposition:descriptions=0|disposition:metadata=0|disposition:dependent=0|disposition:still_image=0|tag:language=und|tag:handler_name=VideoHandler|tag:vendor_id=[0][0][0][0]
format|filename=cbs-hevc-discard-nonref.mp4|nb_streams=1|nb_programs=0|format_name=mov,mp4,m4a,3gp,3g2,mj2|start_time=0.000000|duration=1.720000|size=48589|bit_rate=225995|probe_score=100|tag:major_brand=isom|tag:minor_version=512|tag:compatible_brands=isomiso2mp41
